<?xml version="1.0" encoding="UTF-8"?>
<!DOCTYPE svg PUBLIC "-//W3C//DTD SVG 1.1//EN" "http://www.w3.org/Graphics/SVG/1.1/DTD/svg11.dtd">
<svg xmlns="http://www.w3.org/2000/svg" version="1.1" width="420px" height="413px" style="shape-rendering:geometricPrecision; text-rendering:geometricPrecision; image-rendering:optimizeQuality; fill-rule:evenodd; clip-rule:evenodd" xmlns:xlink="http://www.w3.org/1999/xlink">
<g><path style="opacity:0.994" fill="#171515" d="M 191.5,-0.5 C 203.5,-0.5 215.5,-0.5 227.5,-0.5C 294.27,7.81892 346.77,39.4856 385,94.5C 403.773,124.655 415.273,157.321 419.5,192.5C 419.5,204.833 419.5,217.167 419.5,229.5C 407.136,319.178 358.803,380.178 274.5,412.5C 272.167,412.5 269.833,412.5 267.5,412.5C 264.458,410.776 262.625,408.109 262,404.5C 261.667,379.5 261.333,354.5 261,329.5C 259.071,320.141 254.904,311.974 248.5,305C 267.845,302.551 286.178,296.885 303.5,288C 326.146,272.568 338.98,251.068 342,223.5C 348.182,193.233 341.682,166.233 322.5,142.5C 328.563,123.581 327.563,105.081 319.5,87C 310.834,86.1325 302.501,87.4658 294.5,91C 282.87,95.8322 271.87,101.666 261.5,108.5C 226.823,99.1674 192.156,99.1674 157.5,108.5C 143.144,98.6586 127.478,91.4919 110.5,87C 106.577,86.2073 102.744,86.374 99,87.5C 93.7839,101.386 92.1172,115.72 94,130.5C 94.317,134.939 95.4837,139.105 97.5,143C 79.461,163.797 72.2943,187.964 76,215.5C 77.7987,237.581 85.4653,257.247 99,274.5C 109.003,284.827 120.837,292.327 134.5,297C 146.252,300.939 158.252,303.606 170.5,305C 163.286,312.968 158.952,322.301 157.5,333C 129.31,344.939 108.144,337.439 94,310.5C 86.4998,300.417 76.4998,294.75 64,293.5C 54.0783,294.404 52.9116,298.237 60.5,305C 66.1523,307.75 70.9856,311.583 75,316.5C 81.4429,326.384 87.1095,336.717 92,347.5C 106.469,362.101 123.969,367.934 144.5,365C 147.478,364.304 150.478,363.804 153.5,363.5C 154.5,363.5 155.5,363.5 156.5,363.5C 156.173,373.015 156.506,382.348 157.5,391.5C 157.839,396.93 157.339,402.264 156,407.5C 154.437,410.023 152.27,411.69 149.5,412.5C 147.833,412.5 146.167,412.5 144.5,412.5C 60.1975,380.178 11.8641,319.178 -0.5,229.5C -0.5,217.5 -0.5,205.5 -0.5,193.5C 9.50922,113.694 50.1759,55.5272 121.5,19C 143.989,9.04743 167.323,2.54743 191.5,-0.5 Z"/></g>
<g><path style="opacity:1" fill="#fefefe" d="M 267.5,412.5 C 228.167,412.5 188.833,412.5 149.5,412.5C 152.27,411.69 154.437,410.023 156,407.5C 157.339,402.264 157.839,396.93 157.5,391.5C 157.5,381.833 157.5,372.167 157.5,362.5C 155.901,362.232 154.568,362.566 153.5,363.5C 150.478,363.804 147.478,364.304 144.5,365C 123.969,367.934 106.469,362.101 92,347.5C 87.1095,336.717 81.4429,326.384 75,316.5C 70.9856,311.583 66.1523,307.75 60.5,305C 52.9116,298.237 54.0783,294.404 64,293.5C 76.4998,294.75 86.4998,300.417 94,310.5C 108.144,337.439 129.31,344.939 157.5,333C 158.952,322.301 163.286,312.968 170.5,305C 158.252,303.606 146.252,300.939 134.5,297C 120.837,292.327 109.003,284.827 99,274.5C 85.4653,257.247 77.7987,237.581 76,215.5C 72.2943,187.964 79.461,163.797 97.5,143C 95.4837,139.105 94.317,134.939 94,130.5C 92.1172,115.72 93.7839,101.386 99,87.5C 102.744,86.374 106.577,86.2073 110.5,87C 127.478,91.4919 143.144,98.6586 157.5,108.5C 192.156,99.1674 226.823,99.1674 261.5,108.5C 271.87,101.666 282.87,95.8322 294.5,91C 302.501,87.4658 310.834,86.1325 319.5,87C 327.563,105.081 328.563,123.581 322.5,142.5C 341.682,166.233 348.182,193.233 342,223.5C 338.98,251.068 326.146,272.568 303.5,288C 286.178,296.885 267.845,302.551 248.5,305C 254.904,311.974 259.071,320.141 261,329.5C 261.333,354.5 261.667,379.5 262,404.5C 262.625,408.109 264.458,410.776 267.5,412.5 Z"/></g>
<g><path style="opacity:1" fill="#5a5858" d="M 153.5,363.5 C 154.568,362.566 155.901,362.232 157.5,362.5C 157.5,372.167 157.5,381.833 157.5,391.5C 156.506,382.348 156.173,373.015 156.5,363.5C 155.5,363.5 154.5,363.5 153.5,363.5 Z"/></g>
</svg>
