<?xml version="1.0" encoding="UTF-8"?>
<svg version="1.1" xmlns="http://www.w3.org/2000/svg" width="420" height="413">
<path d="M0 0 C1.27722606 -0.01147664 2.55445213 -0.02295328 3.87038201 -0.0347777 C7.40004378 -0.06554458 10.92878896 -0.05909266 14.45852506 -0.04623592 C18.27127259 -0.03882029 22.08380201 -0.06589373 25.89646912 -0.08834839 C33.36015663 -0.12655895 40.82352021 -0.13197435 48.28728906 -0.1249476 C54.35588139 -0.11959377 60.42437556 -0.12485615 66.49295616 -0.13762093 C67.35738436 -0.13940649 68.22181256 -0.14119206 69.11243555 -0.14303173 C70.86866124 -0.14666708 72.62488693 -0.15030948 74.3811126 -0.15395886 C90.84436266 -0.18657424 107.3074283 -0.18010355 123.77068873 -0.16180433 C138.82028845 -0.14630057 153.8693054 -0.18005426 168.91878984 -0.23709898 C184.38337108 -0.29526624 199.84767677 -0.3199965 215.31236809 -0.30872923 C223.98992763 -0.30299745 232.66699131 -0.31041249 241.34446144 -0.35287285 C248.73258047 -0.38865916 256.11989855 -0.3927813 263.5080289 -0.35650235 C267.27493857 -0.33886409 271.04038451 -0.33544997 274.80719566 -0.37150955 C278.89849574 -0.4102189 282.98633078 -0.37863008 287.07763672 -0.34057617 C288.25800532 -0.36269903 289.43837392 -0.38482188 290.65451127 -0.40761513 C299.9673129 -0.22578126 304.686771 3.40747658 311.22929382 9.78208923 C312.3669017 10.77922604 313.50813298 11.77226573 314.65507507 12.75865173 C335.30088974 31.70027872 335.30088974 31.70027872 341.22929382 40.78208923 C341.22929382 41.44208923 341.22929382 42.10208923 341.22929382 42.78208923 C341.88929382 42.78208923 342.54929382 42.78208923 343.22929382 42.78208923 C346.22929382 47.16670462 346.22929382 47.16670462 346.22929382 49.78208923 C346.88929382 49.78208923 347.54929382 49.78208923 348.22929382 49.78208923 C353.00115778 55.1248154 353.99548598 60.38366111 353.96366882 67.32896423 C353.97795929 68.66764557 353.97795929 68.66764557 353.99253845 70.03337097 C354.00464098 71.91246211 354.00392725 73.79167537 353.99101257 75.67076111 C353.97937538 78.51217491 354.03153839 81.34757787 354.08866882 84.18833923 C354.18829665 97.8067826 351.88993721 105.83223896 342.41679382 116.03208923 C339.5554843 118.78208923 339.5554843 118.78208923 337.22929382 118.78208923 C337.22929382 119.44208923 337.22929382 120.10208923 337.22929382 120.78208923 C334.26129388 122.5260768 331.21339077 124.07335638 328.14726257 125.63755798 C324.46523976 128.34362294 323.55655256 130.44209093 322.22929382 134.78208923 C321.8302522 138.12570175 321.8302522 138.12570175 321.97929382 141.65708923 C321.99097595 142.31910339 322.00265808 142.98111755 322.01469421 143.66319275 C322.06553259 146.03715844 322.14602113 148.40904022 322.22929382 150.78208923 C322.27642517 152.28473328 322.27642517 152.28473328 322.32450867 153.81773376 C322.49714656 159.21165486 322.68925004 164.60487837 322.91288757 169.99693298 C322.94954529 170.89532898 322.986203 171.79372498 323.02397156 172.71934509 C323.1854211 175.12765006 323.43402819 177.47122442 323.73403931 179.86305237 C324.28391178 184.77105276 324.37031754 189.61474494 324.35868835 194.54942322 C324.36131683 195.9464447 324.36131683 195.9464447 324.36399841 197.37168884 C324.3683684 200.423873 324.36549587 203.47599832 324.36210632 206.52818298 C324.36278081 208.66612763 324.36375205 210.80407221 324.36500549 212.9420166 C324.36647594 217.41288486 324.36434912 221.88373308 324.35966492 226.354599 C324.35397151 232.06488105 324.35724835 237.77511606 324.36323738 243.48539639 C324.36686357 247.89763743 324.3656949 252.30986745 324.36310959 256.72210884 C324.36244583 258.82669645 324.36324933 260.93128509 324.36558914 263.03587151 C324.36814918 265.98572791 324.36422804 268.93550981 324.35868835 271.88536072 C324.36071259 272.74229019 324.36273682 273.59921967 324.36482239 274.4821167 C324.34735148 279.5435016 324.03389078 284.49943245 323.47096062 289.52996159 C323.0927176 293.05486276 322.91224492 296.5863593 322.72929382 300.12583923 C322.64608103 301.63365839 322.56274432 303.14147071 322.47929382 304.64927673 C322.3526028 306.98415266 322.22734407 309.31908879 322.10429382 311.65415955 C321.98311836 313.93661308 321.8565623 316.21871853 321.72929382 318.50083923 C321.6938446 319.20285461 321.65839539 319.90487 321.62187195 320.62815857 C321.34264269 325.5553915 321.34264269 325.5553915 320.22929382 327.78208923 C320.12616882 329.01958923 320.02304382 330.25708923 319.91679382 331.53208923 C319.36807158 337.07328432 317.77315822 342.23253791 316.16679382 347.54771423 C315.37239137 350.2884027 314.73555548 352.97655588 314.22929382 355.78208923 C313.56929382 355.78208923 312.90929382 355.78208923 312.22929382 355.78208923 C312.18804382 356.44208923 312.14679382 357.10208923 312.10429382 357.78208923 C310.79997898 362.25402583 308.64524112 365.60296181 305.22929382 368.78208923 C302.28477566 370.05767248 299.39786932 370.39755337 296.22929382 370.78208923 C294.60229779 371.12697027 292.97728932 371.48134738 291.35429382 371.84458923 C286.74637268 372.76906244 282.16450788 373.20989394 277.47929382 373.53599548 C275.19623565 373.65390401 275.19623565 373.65390401 273.22929382 374.78208923 C270.94087029 374.98856354 268.64812989 375.14856031 266.35429382 375.28208923 C261.76857299 375.49007566 261.76857299 375.49007566 257.26811218 376.28208923 C255.20888578 376.7870941 253.34060106 376.96801138 251.22538757 377.06333923 C250.48482117 377.10072205 249.74425476 377.13810486 248.98124695 377.17662048 C247.43438003 377.24711062 245.88750497 377.31742223 244.34062195 377.38755798 C241.09854568 377.55149907 238.32528539 377.75009204 235.22929382 378.78208923 C232.79032445 378.87744408 230.38024945 378.91683114 227.94132996 378.90907288 C227.1935933 378.91063287 226.44585664 378.91219286 225.67546129 378.91380012 C223.16278663 378.91779783 220.65017209 378.91462521 218.13749695 378.91148376 C216.3389889 378.91283835 214.54048112 378.91461861 212.74197388 378.91679382 C207.8516033 378.92136134 202.96125376 378.91958138 198.0708828 378.91641474 C192.95933855 378.91388764 187.84779614 378.91622966 182.73625183 378.9178009 C174.15140966 378.91962157 165.56657609 378.91721898 156.98173523 378.91246033 C147.04845824 378.90701791 137.11520178 378.90878063 127.1819253 378.91428673 C118.66214144 378.91882078 110.14236377 378.91946698 101.6225791 378.91684806 C96.53026334 378.9152869 91.43795723 378.91508715 86.34564209 378.91838455 C81.55881855 378.92126748 76.77202155 378.91927975 71.98520088 378.9134903 C70.22554633 378.91216497 68.46588956 378.91255297 66.70623589 378.91475296 C64.3098794 378.91747336 61.91360867 378.91407234 59.51725769 378.90907288 C58.81599904 378.9113036 58.11474038 378.91353432 57.39223146 378.91583264 C54.38510415 378.90361004 52.10854544 378.74183977 49.22929382 377.78208923 C46.41370459 377.57752574 43.61078541 377.40990245 40.79179382 377.28208923 C39.27209116 377.21283696 37.75254533 377.14003377 36.23320007 377.06333923 C35.56103455 377.03304626 34.88886902 377.0027533 34.19633484 376.97154236 C32.12667672 376.77220579 30.2415432 376.29510887 28.22929382 375.78208923 C24.60393654 375.48067385 20.97810709 375.27474364 17.34648132 375.06333923 C14.22929382 374.78208923 14.22929382 374.78208923 12.22929382 373.78208923 C10.74431436 373.51846529 9.25173874 373.29682372 7.75663757 373.09849548 C6.85622742 372.97539001 5.95581726 372.85228455 5.02812195 372.72544861 C3.14794847 372.47518661 1.26774113 372.22517886 -0.61250305 371.97544861 C-16.53301616 369.79780224 -16.53301616 369.79780224 -19.92695618 367.01255798 C-20.37039368 366.3383783 -20.81383118 365.66419861 -21.27070618 364.96958923 C-21.97066711 363.90804626 -21.97066711 363.90804626 -22.68476868 362.82505798 C-23.92543942 360.49099035 -24.60532047 358.42826052 -24.77070618 355.78208923 C-25.43070618 355.78208923 -26.09070618 355.78208923 -26.77070618 355.78208923 C-27.37525111 353.21967798 -27.97934385 350.65716136 -28.58320618 348.09458923 C-28.74885071 347.3926947 -28.91449524 346.69080017 -29.0851593 345.96763611 C-29.44505259 344.43978726 -29.80052442 342.91089292 -30.15254211 341.38121033 C-30.58815471 339.54964172 -31.05248612 337.72478626 -31.53730774 335.90562439 C-33.87216221 326.77574471 -34.48074644 317.8983234 -34.89570618 308.53208923 C-35.00491935 306.2866664 -35.11748378 304.04145118 -35.23234558 301.79631042 C-35.33450113 299.77069881 -35.42813839 297.74466271 -35.52119446 295.71861267 C-35.69427019 292.98801282 -35.93548321 290.35853382 -36.2782135 287.65324402 C-36.83320192 282.72621011 -36.91162909 277.86119551 -36.90010071 272.90708923 C-36.90185303 271.96438171 -36.90360535 271.02167419 -36.90541077 270.05039978 C-36.90978098 266.96094372 -36.90690839 263.87154579 -36.90351868 260.78208923 C-36.9041931 258.61932871 -36.90516429 256.45656825 -36.90641785 254.29380798 C-36.90788828 249.77166519 -36.90576132 245.24954221 -36.90107727 240.72740173 C-36.8953804 234.94751915 -36.89866291 229.16768301 -36.90464973 223.38780212 C-36.90827302 218.92498936 -36.90710864 214.4621875 -36.90452194 209.99937439 C-36.90385756 207.86884048 -36.9046639 205.73830556 -36.9070015 203.60777283 C-36.9095571 200.62418515 -36.90564664 197.64067144 -36.90010071 194.65708923 C-36.90212494 193.78721375 -36.90414917 192.91733826 -36.90623474 192.02110291 C-36.88985656 187.23539832 -36.61491747 182.5755351 -36.00960732 177.82705498 C-35.29974854 171.75074705 -35.28937069 165.5820347 -35.10322571 159.47203064 C-35.04831986 157.76540109 -34.98617255 156.05898877 -34.91670227 154.35289001 C-34.00285479 140.20369355 -34.00285479 140.20369355 -37.77070618 126.78208923 C-41.05457512 124.63645607 -41.05457512 124.63645607 -44.77070618 123.78208923 C-47.70820618 122.21958923 -47.70820618 122.21958923 -49.77070618 120.78208923 C-49.77070618 120.12208923 -49.77070618 119.46208923 -49.77070618 118.78208923 C-50.35851868 118.52814392 -50.94633118 118.27419861 -51.55195618 118.01255798 C-57.64077427 114.63583668 -61.72931776 107.86486606 -64.77070618 101.78208923 C-64.77070618 101.12208923 -64.77070618 100.46208923 -64.77070618 99.78208923 C-65.43070618 99.78208923 -66.09070618 99.78208923 -66.77070618 99.78208923 C-66.91991438 94.10796915 -67.02832511 88.43501045 -67.10029602 82.75938416 C-67.13032158 80.83209826 -67.17115598 78.90494732 -67.2233429 76.97813416 C-67.73306886 57.66351779 -67.73306886 57.66351779 -62.26533508 51.01036072 C-60.77070618 49.78208923 -60.77070618 49.78208923 -58.77070618 49.78208923 C-58.30664368 48.60646423 -58.30664368 48.60646423 -57.83320618 47.40708923 C-56.77070618 44.78208923 -56.77070618 44.78208923 -55.77070618 42.78208923 C-55.11070618 42.78208923 -54.45070618 42.78208923 -53.77070618 42.78208923 C-53.49742493 42.19040955 -53.22414368 41.59872986 -52.94258118 40.98912048 C-50.86241755 37.07147899 -47.75045104 34.04072647 -44.77070618 30.78208923 C-44.26394348 30.22489197 -43.75718079 29.6676947 -43.23506165 29.09361267 C-36.10623877 21.27357253 -28.97680666 13.49970145 -20.77070618 6.78208923 C-20.00697975 6.04801044 -20.00697975 6.04801044 -19.22782451 5.29910177 C-13.18139607 -0.01760385 -7.81479648 -0.07464145 0 0 Z " fill="#020202" transform="translate(66.77070617675781,17.217910766601563)"/>
<path d="M0 0 C1.27722606 -0.01147664 2.55445213 -0.02295328 3.87038201 -0.0347777 C7.40004378 -0.06554458 10.92878896 -0.05909266 14.45852506 -0.04623592 C18.27127259 -0.03882029 22.08380201 -0.06589373 25.89646912 -0.08834839 C33.36015663 -0.12655895 40.82352021 -0.13197435 48.28728906 -0.1249476 C54.35588139 -0.11959377 60.42437556 -0.12485615 66.49295616 -0.13762093 C67.35738436 -0.13940649 68.22181256 -0.14119206 69.11243555 -0.14303173 C70.86866124 -0.14666708 72.62488693 -0.15030948 74.3811126 -0.15395886 C90.84436266 -0.18657424 107.3074283 -0.18010355 123.77068873 -0.16180433 C138.82028845 -0.14630057 153.8693054 -0.18005426 168.91878984 -0.23709898 C184.38337108 -0.29526624 199.84767677 -0.3199965 215.31236809 -0.30872923 C223.98992763 -0.30299745 232.66699131 -0.31041249 241.34446144 -0.35287285 C248.73258047 -0.38865916 256.11989855 -0.3927813 263.5080289 -0.35650235 C267.27493857 -0.33886409 271.04038451 -0.33544997 274.80719566 -0.37150955 C278.89849574 -0.4102189 282.98633078 -0.37863008 287.07763672 -0.34057617 C288.25800532 -0.36269903 289.43837392 -0.38482188 290.65451127 -0.40761513 C299.9673129 -0.22578126 304.686771 3.40747658 311.22929382 9.78208923 C312.3669017 10.77922604 313.50813298 11.77226573 314.65507507 12.75865173 C335.30088974 31.70027872 335.30088974 31.70027872 341.22929382 40.78208923 C341.22929382 41.44208923 341.22929382 42.10208923 341.22929382 42.78208923 C341.88929382 42.78208923 342.54929382 42.78208923 343.22929382 42.78208923 C346.22929382 47.16670462 346.22929382 47.16670462 346.22929382 49.78208923 C346.88929382 49.78208923 347.54929382 49.78208923 348.22929382 49.78208923 C353.00115778 55.1248154 353.99548598 60.38366111 353.96366882 67.32896423 C353.97795929 68.66764557 353.97795929 68.66764557 353.99253845 70.03337097 C354.00464098 71.91246211 354.00392725 73.79167537 353.99101257 75.67076111 C353.97937538 78.51217491 354.03153839 81.34757787 354.08866882 84.18833923 C354.18829665 97.8067826 351.88993721 105.83223896 342.41679382 116.03208923 C339.5554843 118.78208923 339.5554843 118.78208923 337.22929382 118.78208923 C337.22929382 119.44208923 337.22929382 120.10208923 337.22929382 120.78208923 C332.05282252 125.30973852 326.93143155 126.61187621 320.22929382 126.78208923 C318.88737976 126.87490173 318.88737976 126.87490173 317.51835632 126.96958923 C304.92769242 127.50967133 292.64204471 124.41634193 283.22929382 115.78208923 C277.02979806 109.3082795 272.70871838 100.6109132 271.22929382 91.78208923 C269.46640491 94.4264226 268.80525714 95.95268198 267.97929382 98.90708923 C263.81669347 111.62156656 254.28248721 119.49623839 242.80741882 125.65318298 C238.15344697 127.69105854 233.83799894 127.93987071 228.79179382 127.96958923 C227.69995789 127.98376892 226.60812195 127.99794861 225.48320007 128.01255798 C219.77447402 127.60821844 215.2623042 125.35213709 210.22929382 122.78208923 C209.43523132 122.50107361 208.64116882 122.22005798 207.82304382 121.93052673 C198.72073822 117.90028901 193.84174865 108.55187507 190.22929382 99.78208923 C189.14152614 96.80032606 188.17359506 93.8137932 187.22929382 90.78208923 C186.89929382 90.45208923 186.56929382 90.12208923 186.22929382 89.78208923 C186.10812195 90.51814392 185.98695007 91.25419861 185.86210632 92.01255798 C185.61073914 93.47628845 185.61073914 93.47628845 185.35429382 94.96958923 C185.19187195 95.93251892 185.02945007 96.89544861 184.86210632 97.88755798 C184.24889866 100.69241527 183.37263039 103.1543367 182.22929382 105.78208923 C181.56929382 105.78208923 180.90929382 105.78208923 180.22929382 105.78208923 C180.04366882 106.46271423 179.85804382 107.14333923 179.66679382 107.84458923 C175.07965052 117.21831685 165.32895131 121.64588128 156.22929382 125.78208923 C145.63063623 128.85857357 132.0396652 127.68727492 122.22929382 122.78208923 C122.22929382 122.12208923 122.22929382 121.46208923 122.22929382 120.78208923 C120.57929382 120.12208923 118.92929382 119.46208923 117.22929382 118.78208923 C117.22929382 118.12208923 117.22929382 117.46208923 117.22929382 116.78208923 C116.63116882 116.51783142 116.03304382 116.25357361 115.41679382 115.98130798 C109.34293607 112.65153239 104.55006137 105.04456632 102.54179382 98.56333923 C102.05616853 96.64781724 101.63639558 94.71582256 101.22929382 92.78208923 C100.56929382 92.78208923 99.90929382 92.78208923 99.22929382 92.78208923 C99.02304382 93.68958923 98.81679382 94.59708923 98.60429382 95.53208923 C94.32361846 110.26000726 86.46674884 118.01721051 73.53398132 125.18052673 C64.67793802 129.47246261 53.41685755 128.89651762 44.22929382 125.78208923 C32.83966108 121.77591984 24.55787722 111.25228819 19.22929382 100.78208923 C18.30745544 98.0941119 17.7484961 95.58578155 17.22929382 92.78208923 C16.89929382 92.45208923 16.56929382 92.12208923 16.22929382 91.78208923 C15.67241882 93.66927673 15.67241882 93.66927673 15.10429382 95.59458923 C10.81500901 108.26294206 4.42742963 116.17686307 -7.20429993 122.64146423 C-14.34180887 125.81369043 -20.57476243 127.27061906 -28.39570618 127.15708923 C-29.2026593 127.1686908 -30.00961243 127.18029236 -30.84101868 127.19224548 C-38.14583879 127.15667006 -43.72819247 124.99353818 -49.77070618 120.78208923 C-49.77070618 120.12208923 -49.77070618 119.46208923 -49.77070618 118.78208923 C-50.35851868 118.52814392 -50.94633118 118.27419861 -51.55195618 118.01255798 C-57.64077427 114.63583668 -61.72931776 107.86486606 -64.77070618 101.78208923 C-64.77070618 101.12208923 -64.77070618 100.46208923 -64.77070618 99.78208923 C-65.43070618 99.78208923 -66.09070618 99.78208923 -66.77070618 99.78208923 C-66.91991438 94.10796915 -67.02832511 88.43501045 -67.10029602 82.75938416 C-67.13032158 80.83209826 -67.17115598 78.90494732 -67.2233429 76.97813416 C-67.73306886 57.66351779 -67.73306886 57.66351779 -62.26533508 51.01036072 C-60.77070618 49.78208923 -60.77070618 49.78208923 -58.77070618 49.78208923 C-58.30664368 48.60646423 -58.30664368 48.60646423 -57.83320618 47.40708923 C-56.77070618 44.78208923 -56.77070618 44.78208923 -55.77070618 42.78208923 C-55.11070618 42.78208923 -54.45070618 42.78208923 -53.77070618 42.78208923 C-53.49742493 42.19040955 -53.22414368 41.59872986 -52.94258118 40.98912048 C-50.86241755 37.07147899 -47.75045104 34.04072647 -44.77070618 30.78208923 C-44.26394348 30.22489197 -43.75718079 29.6676947 -43.23506165 29.09361267 C-36.10623877 21.27357253 -28.97680666 13.49970145 -20.77070618 6.78208923 C-20.00697975 6.04801044 -20.00697975 6.04801044 -19.22782451 5.29910177 C-13.18139607 -0.01760385 -7.81479648 -0.07464145 0 0 Z " fill="#000000" transform="translate(66.77070617675781,17.217910766601563)"/>
<path d="M0 0 C4.43748635 -0.02896822 8.87494847 -0.04678788 13.3125 -0.0625 C14.57513672 -0.07087891 15.83777344 -0.07925781 17.13867188 -0.08789062 C18.95141602 -0.09272461 18.95141602 -0.09272461 20.80078125 -0.09765625 C22.47394409 -0.10551147 22.47394409 -0.10551147 24.1809082 -0.11352539 C27 0 27 0 30 1 C30 1.66 30 2.32 30 3 C30.886875 3.12375 31.77375 3.2475 32.6875 3.375 C40.0504317 4.7642324 43.604356 7.91988629 48.1875 13.8125 C52.31001969 17.0189042 55.9602117 16.53050403 61 16 C61.91541565 15.83064941 62.8308313 15.66129883 63.77398682 15.48681641 C66.9888321 15.00168527 69.96550754 14.90187782 73.21386719 14.9375 C75.02670197 14.95115601 75.02670197 14.95115601 76.87615967 14.96508789 C78.16999573 14.97660889 79.46383179 14.98812988 80.796875 15 C83.55730064 15.00463304 86.31770009 15.00024728 89.078125 14.99609375 C93.41459986 14.98990172 97.74977082 14.99512565 102.0859375 15.05126953 C105.60789738 15.0958656 109.12747936 15.09591462 112.64957428 15.06713867 C114.62257301 15.06261309 116.59550849 15.10396502 118.5680542 15.14648438 C125.48418418 15.055226 129.34868413 14.37391209 134.51269531 9.59375 C135.2404718 8.79775391 135.96824829 8.00175781 136.71807861 7.18164062 C144.09021311 0.13348015 155.69811831 0.65090276 165.25 0.5625 C166.25562988 0.55210693 167.26125977 0.54171387 168.29736328 0.53100586 C174.98111529 0.61071832 180.71613682 1.73044292 187 4 C187 4.66 187 5.32 187 6 C187.71285156 6.22558594 188.42570313 6.45117188 189.16015625 6.68359375 C197.36762252 10.48815514 204.87917256 20.08870681 209 28 C209 28.66 209 29.32 209 30 C209.66 30 210.32 30 211 30 C212.35821293 33.32362693 213.67921341 36.66134502 215 40 C215.45890625 41.12792969 215.9178125 42.25585938 216.390625 43.41796875 C219.87961883 52.18351295 222.43280059 61.03456485 224.73852539 70.17895508 C226.4504236 76.95838745 228.30304099 83.67761421 230.3125 90.375 C230.56708984 91.23125977 230.82167969 92.08751953 231.08398438 92.96972656 C231.9823192 96.78521623 231.9823192 96.78521623 234 100 C234.45243909 101.9503793 234.85995926 103.91119024 235.25 105.875 C236.69260555 112.82378811 238.43786973 119.66205184 240.28613281 126.51318359 C240.49334961 127.28355957 240.70056641 128.05393555 240.9140625 128.84765625 C241.0992041 129.52836182 241.2843457 130.20906738 241.47509766 130.91040039 C243.06815032 137.25223188 243.28834076 143.29336165 243.375 149.8125 C243.41238281 150.86759766 243.44976562 151.92269531 243.48828125 153.00976562 C243.56650707 159.98490109 242.62713432 164.65107962 238 170 C233.34836687 174.12303846 229.02290689 174.81652072 223 175 C222.33822754 175.02046387 221.67645508 175.04092773 220.99462891 175.06201172 C212.15976098 175.29660005 203.56533567 175.46506928 195 173 C193.92298828 172.72542969 193.92298828 172.72542969 192.82421875 172.4453125 C179.56142193 168.62901928 169.24072352 160.42311934 162.1875 148.625 C157.88418363 140.16778796 155.6807396 132.45956728 156 123 C155.29206299 123.08564209 154.58412598 123.17128418 153.85473633 123.25952148 C150.50819145 123.65983107 147.16039285 124.04863076 143.8125 124.4375 C142.70068359 124.57220703 141.58886719 124.70691406 140.44335938 124.84570312 C122.02105734 126.96142969 103.46483403 127.25997212 84.9375 127.3125 C83.91148682 127.31644775 82.88547363 127.32039551 81.82836914 127.32446289 C62.33594037 127.35916035 43.28021543 125.7839328 24 123 C23.87520264 123.80171631 23.75040527 124.60343262 23.62182617 125.42944336 C23.36622925 127.02477905 23.36622925 127.02477905 23.10546875 128.65234375 C22.93942139 129.70156006 22.77337402 130.75077637 22.60229492 131.83178711 C20.07620012 145.11963965 13.14426078 157.14388683 2 165 C0.35576632 165.72022067 -1.30711612 166.40303568 -3 167 C-3 167.66 -3 168.32 -3 169 C-13.81296435 174.25963945 -23.96031593 176.60653827 -36 176.625 C-37.7159436 176.62850464 -37.7159436 176.62850464 -39.46655273 176.63208008 C-47.1728553 176.4657411 -52.27291752 175.69520523 -58.41015625 170.82421875 C-60 169 -60 169 -61 166 C-61.66 166 -62.32 166 -63 166 C-67.50394765 156.24144675 -66.32099782 146.97469083 -64.6875 136.625 C-64.57003418 135.86396973 -64.45256836 135.10293945 -64.33154297 134.31884766 C-64.20537598 133.58714355 -64.07920898 132.85543945 -63.94921875 132.1015625 C-63.78425903 131.13210693 -63.78425903 131.13210693 -63.6159668 130.14306641 C-63 128 -63 128 -61.56176758 125.16625977 C-59.93778985 121.87387784 -58.98518213 118.78768694 -58.0625 115.23828125 C-57.81318726 114.29132637 -57.81318726 114.29132637 -57.55883789 113.32524109 C-57.03298658 111.32256331 -56.51624547 109.31767294 -56 107.3125 C-55.65426884 105.9874675 -55.30791921 104.6625962 -54.9609375 103.33789062 C-54.28440001 100.75329092 -53.61025948 98.16811029 -52.9375 95.58251953 C-50.74083114 87.18826983 -48.39952203 78.8382033 -46 70.5 C-44.39944612 64.92628339 -42.80821204 59.35298479 -41.3125 53.75 C-40.06268925 49.10040644 -38.58273565 44.54615558 -37 40 C-36.34 40 -35.68 40 -35 40 C-34.01 36.7 -33.02 33.4 -32 30 C-31.34 30 -30.68 30 -30 30 C-29.79375 29.175 -29.5875 28.35 -29.375 27.5 C-25.71919515 18.19431492 -17.26319956 8.60104566 -8.125 4.5 C-5.76967705 3.58826209 -3.39686594 2.79895531 -1 2 C-0.67 1.34 -0.34 0.68 0 0 Z " fill="#FDFDFD" transform="translate(121,179)"/>
<path d="M0 0 C2.13941387 2.13941387 2.4433181 3.05161336 3.25 5.875 C6.59379582 16.17124257 11.14169923 25.40710074 20 32 C22.38253068 33.09106545 24.60694355 33.85879608 27.15234375 34.46484375 C29 35 29 35 31 37 C34.8077372 38.05064102 38.50158796 38.16432031 42.4375 38.1875 C43.52933594 38.20167969 44.62117188 38.21585938 45.74609375 38.23046875 C55.91820385 37.50999517 66.23261471 31.40123436 73.0625 24.0625 C78.65009913 17.30017711 81.45828421 10.31834258 84 2 C86 3 86 3 86.7109375 4.78515625 C86.93007813 5.53667969 87.14921875 6.28820312 87.375 7.0625 C90.4569708 16.75307487 95.30430223 26.72649457 104.48046875 31.90234375 C115.52117432 36.71232556 127.16861226 38.62682435 139 36 C139 39.60110873 137.96897064 41.81800104 136.5625 45.125 C136.11003906 46.20007813 135.65757812 47.27515625 135.19140625 48.3828125 C134 51 134 51 133 52 C123.84435725 52.54078659 114.16112324 52.7285478 106 48 C105.67 47.34 105.34 46.68 105 46 C104.01 45.649375 103.02 45.29875 102 44.9375 C95.65781273 42.40325126 90.71589371 36.57384057 87 31 C86.01 30.67 85.02 30.34 84 30 C84 30.66 84 31.32 84 32 C82.625 33.625 82.625 33.625 81 35 C80.34 35 79.68 35 79 35 C78.79375 35.556875 78.5875 36.11375 78.375 36.6875 C76.42316968 39.97012371 74.05769006 41.70673246 71 44 C70.34 44 69.68 44 69 44 C69 44.66 69 45.32 69 46 C60.01028724 52.51210105 46.68923191 53.03519221 36 52 C21.33263572 49.42192306 13.87142693 43.3331108 4.3203125 32.51171875 C2.25685412 29.98112301 2.25685412 29.98112301 0 29 C0 29.66 0 30.32 0 31 C-0.66 31 -1.32 31 -2 31 C-2.26167969 31.58652344 -2.52335938 32.17304688 -2.79296875 32.77734375 C-5.63174794 38.00473973 -10.68138505 42.41667274 -16 45 C-16.66 45 -17.32 45 -18 45 C-18.33 45.99 -18.66 46.98 -19 48 C-28.35334943 53.93139232 -43.59285551 53.23907881 -54 51.25 C-58.12057359 50.16969981 -61.34856244 48.16381485 -65 46 C-66.134375 45.731875 -67.26875 45.46375 -68.4375 45.1875 C-74.63277935 43.12240688 -79.39941934 38.40087099 -83 33 C-83 32.34 -83 31.68 -83 31 C-83.66 31 -84.32 31 -85 31 C-85 30.34 -85 29.68 -85 29 C-88.45656295 31.80907998 -91.58078281 34.45615067 -94.3125 38 C-97.65142354 42.20946796 -102.38206566 44.42237942 -107 47 C-107.63421875 47.40605469 -108.2684375 47.81210938 -108.921875 48.23046875 C-113.17318729 50.93141715 -117.05286971 51.79236497 -122 52 C-122.72703125 52.03996094 -123.4540625 52.07992187 -124.203125 52.12109375 C-132.26161438 52.34790554 -144.07158206 52.51853344 -151 48 C-151.33 47.34 -151.66 46.68 -152 46 C-152.7425 45.71125 -153.485 45.4225 -154.25 45.125 C-158.38739964 43.43242742 -161.16540571 41.04997346 -163.9375 37.5625 C-166.36449368 34.54714422 -168.97508041 32.40618604 -172 30 C-172.495 31.485 -172.495 31.485 -173 33 C-174.671875 34.68359375 -174.671875 34.68359375 -176.75 36.4375 C-177.46929687 37.0459375 -178.18859375 37.654375 -178.9296875 38.28125 C-179.61289063 38.8484375 -180.29609375 39.415625 -181 40 C-181.94875 40.804375 -182.8975 41.60875 -183.875 42.4375 C-186 44 -186 44 -188 44 C-188 44.66 -188 45.32 -188 46 C-188.62648437 46.27714844 -189.25296875 46.55429688 -189.8984375 46.83984375 C-191.12433594 47.38318359 -191.12433594 47.38318359 -192.375 47.9375 C-193.59316406 48.47697266 -193.59316406 48.47697266 -194.8359375 49.02734375 C-196.23683785 49.6569903 -197.62625284 50.31312642 -199 51 C-200.59447464 51.08400529 -202.19240545 51.10727467 -203.7890625 51.09765625 C-204.73007813 51.09443359 -205.67109375 51.09121094 -206.640625 51.08789062 C-207.62546875 51.07951172 -208.6103125 51.07113281 -209.625 51.0625 C-211.11386719 51.05573242 -211.11386719 51.05573242 -212.6328125 51.04882812 C-215.0886016 51.03702145 -217.54427104 51.020554 -220 51 C-220.50310058 49.2092015 -221.00238628 47.41733089 -221.5 45.625 C-221.7784375 44.62726563 -222.056875 43.62953125 -222.34375 42.6015625 C-223 40 -223 40 -223 38 C-221.80503906 37.96261719 -220.61007813 37.92523438 -219.37890625 37.88671875 C-207.35133589 37.58348512 -207.35133589 37.58348512 -196 34 C-195.08734375 33.57589844 -194.1746875 33.15179688 -193.234375 32.71484375 C-180.1249932 26.14262694 -174.97311162 15.30793557 -170 2 C-167.77209447 4.71768637 -167.0004142 5.99785371 -166.3125 9.5625 C-164.4013713 18.09887485 -156.80785217 26.67573272 -150 32 C-142.60905928 36.52650915 -136.16343119 38.13593196 -127.5 38.1875 C-126.4171875 38.20167969 -125.334375 38.21585938 -124.21875 38.23046875 C-114.50279302 37.53478736 -104.07132039 31.73355456 -97.5 24.6875 C-92.27891835 18.22173011 -88.92590256 11.05377433 -87 3 C-86.01 3.33 -85.02 3.66 -84 4 C-83.2265625 5.75 -83.2265625 5.75 -82.625 8 C-80.24951199 15.70196885 -77.09057002 21.72630103 -70.6484375 26.7109375 C-69 28 -69 28 -67.4140625 29.6015625 C-66.03148504 31.11382102 -66.03148504 31.11382102 -64 32 C-64 32.66 -64 33.32 -64 34 C-52.23456776 37.80846362 -37.44282161 39.79331364 -26 34 C-25.02417969 33.51273438 -24.04835937 33.02546875 -23.04296875 32.5234375 C-15.99147109 28.71510708 -9.67249691 24.34499383 -6 17 C-5.34 17 -4.68 17 -4 17 C-3.07171829 12.45805023 -2.28187395 7.89720092 -1.5 3.328125 C-1 1 -1 1 0 0 Z " fill="#F0F0F0" transform="translate(253,106)"/>
<path d="M0 0 C2.53251219 1.29158122 4.21835413 2.90104136 6.203125 4.93359375 C6.90953125 5.64386719 7.6159375 6.35414063 8.34375 7.0859375 C9.953125 8.99609375 9.953125 8.99609375 9.953125 10.99609375 C10.52587158 11.08133301 11.09861816 11.16657227 11.6887207 11.25439453 C14.61746628 12.21369686 16.01237721 13.68304743 18.18359375 15.86328125 C18.98297363 16.6617749 19.78235352 17.46026855 20.60595703 18.28295898 C21.86061768 19.56408569 21.86061768 19.56408569 23.140625 20.87109375 C23.99253418 21.73355713 24.84444336 22.59602051 25.72216797 23.48461914 C41.30295677 39.39542081 41.30295677 39.39542081 42.953125 45.99609375 C35.363125 45.99609375 27.773125 45.99609375 19.953125 45.99609375 C19.623125 52.92609375 19.293125 59.85609375 18.953125 66.99609375 C6.083125 66.99609375 -6.786875 66.99609375 -20.046875 66.99609375 C-20.046875 59.73609375 -20.046875 52.47609375 -20.046875 44.99609375 C-27.636875 44.99609375 -35.226875 44.99609375 -43.046875 44.99609375 C-42.08280519 41.13981451 -41.68792368 40.24087413 -39.171875 37.49609375 C-38.5325 36.79355469 -37.893125 36.09101563 -37.234375 35.3671875 C-36.5125 34.58472656 -35.790625 33.80226562 -35.046875 32.99609375 C-34.28375 32.14144531 -33.520625 31.28679687 -32.734375 30.40625 C-27.05411628 24.09388931 -21.16583351 18.01122553 -15.171875 11.99609375 C-14.44629395 11.26592041 -13.72071289 10.53574707 -12.97314453 9.78344727 C-3.1552214 -0.00602141 -3.1552214 -0.00602141 0 0 Z " fill="#060606" transform="translate(211.046875,220.00390625)"/>
<path d="M0 0 C4.29148443 0.55373993 7.77380098 2.19047204 11.62109375 4.0625 C16.77886088 6.09511759 21.95043538 6.13623248 27.4375 6.125 C29.32275391 6.12886719 29.32275391 6.12886719 31.24609375 6.1328125 C34.93127902 6.00243134 38.36717317 5.59062733 42 5 C41.67 5.66 41.34 6.32 41 7 C28.17028407 10.84401794 13.37241509 8.08044995 1.87109375 2.0234375 C0.94490234 1.51683594 0.94490234 1.51683594 0 1 C0 0.67 0 0.34 0 0 Z " fill="#707070" transform="translate(184,151)"/>
<path d="M0 0 C2.15264475 2.15264475 2.59802993 3.33943146 3.5 6.1875 C3.75394531 6.98414062 4.00789063 7.78078125 4.26953125 8.6015625 C5.22059365 11.72430214 6.12975932 14.85374523 7 18 C6.01 17.67 5.02 17.34 4 17 C3.26953125 14.93359375 3.26953125 14.93359375 2.8125 12.4375 C2.65394531 11.61121094 2.49539062 10.78492187 2.33203125 9.93359375 C2.22246094 9.29550781 2.11289063 8.65742187 2 8 C1.34 8 0.68 8 0 8 C-0.33 9.32 -0.66 10.64 -1 12 C-2.37520651 8.17998192 -1.74051523 4.92473073 -1 1 C-0.67 0.67 -0.34 0.34 0 0 Z " fill="#888888" transform="translate(253,106)"/>
<path d="M0 0 C0.825 0.144375 1.65 0.28875 2.5 0.4375 C10.26767335 1.68587607 17.63656522 2.12957654 25.5 2.0625 C27.01980469 2.05573242 27.01980469 2.05573242 28.5703125 2.04882812 C31.04693827 2.03714593 33.52343657 2.02076582 36 2 C33.38273216 4.61726784 32.22610099 4.25734101 28.58203125 4.265625 C27.49212891 4.26820313 26.40222656 4.27078125 25.27929688 4.2734375 C24.13525391 4.26570313 22.99121094 4.25796875 21.8125 4.25 C20.68779297 4.25773437 19.56308594 4.26546875 18.40429688 4.2734375 C4.24012964 4.24012964 4.24012964 4.24012964 0 0 Z " fill="#969696" transform="translate(312,351)"/>
<path d="M0 0 C0.82242187 0.20496094 1.64484375 0.40992188 2.4921875 0.62109375 C9.33104455 2.27158004 15.97675688 3.54023916 23 4 C23 4.66 23 5.32 23 6 C14.9879786 6.55789704 8.24007178 5.66011009 1 2 C0.67 1.34 0.34 0.68 0 0 Z " fill="#A1A1A1" transform="translate(362,140)"/>
<path d="M0 0 C1.51953125 1.859375 1.51953125 1.859375 3 4 C2.6875 6.25 2.6875 6.25 2 8 C2 7.34 2 6.68 2 6 C-0.56326494 7.28163247 -0.82416059 8.42785129 -2 11 C-3.77777778 14.88888889 -3.77777778 14.88888889 -6 16 C-4.27933894 10.55123997 -2.15294651 5.28830549 0 0 Z " fill="#9B9B9B" transform="translate(83,108)"/>
<path d="M0 0 C2 1 2 1 2.8515625 3.50390625 C3.10679687 4.51324219 3.36203125 5.52257812 3.625 6.5625 C3.88539063 7.57441406 4.14578125 8.58632812 4.4140625 9.62890625 C4.60742188 10.41136719 4.80078125 11.19382812 5 12 C4.34 12 3.68 12 3 12 C2.71125 11.195625 2.4225 10.39125 2.125 9.5625 C1.26737432 6.8673532 1.26737432 6.8673532 -1 6 C-1.33 6.66 -1.66 7.32 -2 8 C-1.125 2.25 -1.125 2.25 0 0 Z " fill="#9D9D9D" transform="translate(337,108)"/>
<path d="M0 0 C0.65355469 0.15339844 1.30710937 0.30679688 1.98046875 0.46484375 C5.75492159 1.13379594 9.48905996 1.35407297 13.3125 1.5625 C14.05306641 1.60568359 14.79363281 1.64886719 15.55664062 1.69335938 C17.37091464 1.79870432 19.1854355 1.89978316 21 2 C21 2.33 21 2.66 21 3 C17.87501937 3.02895976 14.7500731 3.04678483 11.625 3.0625 C10.73554687 3.07087891 9.84609375 3.07925781 8.9296875 3.08789062 C7.65351562 3.09272461 7.65351562 3.09272461 6.3515625 3.09765625 C5.17327881 3.10551147 5.17327881 3.10551147 3.97119141 3.11352539 C2 3 2 3 0 2 C0 1.34 0 0.68 0 0 Z " fill="#4C4C4C" transform="translate(27,141)"/>
<path d="M0 0 C4.48525648 0.656379 8.66914029 1.70074209 13 3 C8.99068358 4.60372657 5.94176618 3.38691773 2 2 C1.34 1.34 0.68 0.68 0 0 Z " fill="#5F5F5F" transform="translate(312,351)"/>
<path d="M0 0 C0.99 0.33 1.98 0.66 3 1 C3.33 2.98 3.66 4.96 4 7 C3.34 7 2.68 7 2 7 C1.67 5.68 1.34 4.36 1 3 C0.34 3.66 -0.32 4.32 -1 5 C-0.67 3.35 -0.34 1.7 0 0 Z " fill="#7A7A7A" transform="translate(166,109)"/>
</svg>
