<?xml version="1.0" encoding="UTF-8"?>
<!DOCTYPE svg PUBLIC "-//W3C//DTD SVG 1.1//EN" "http://www.w3.org/Graphics/SVG/1.1/DTD/svg11.dtd">
<svg xmlns="http://www.w3.org/2000/svg" version="1.1" width="420px" height="413px" style="shape-rendering:geometricPrecision; text-rendering:geometricPrecision; image-rendering:optimizeQuality; fill-rule:evenodd; clip-rule:evenodd" xmlns:xlink="http://www.w3.org/1999/xlink">
<g><path style="opacity:1" fill="#000000" d="M 186.5,-0.5 C 201.5,-0.5 216.5,-0.5 231.5,-0.5C 300.364,9.50716 352.864,44.1738 389,103.5C 418.816,158.887 423.816,216.554 404,276.5C 379.025,339.475 334.525,381.975 270.5,404C 257.495,407.432 244.495,410.265 231.5,412.5C 216.5,412.5 201.5,412.5 186.5,412.5C 118.396,402.887 66.2294,368.887 30,310.5C -0.780765,254.563 -6.1141,196.23 14,135.5C 38.9492,72.5512 83.4492,30.0512 147.5,8C 160.522,4.65704 173.522,1.8237 186.5,-0.5 Z"/></g>
<g><path style="opacity:1" fill="#fefefe" d="M 312.5,88.5 C 325.977,86.3173 332.644,91.9839 332.5,105.5C 323.96,170.406 313.794,235.072 302,299.5C 297.018,324.569 283.518,330.402 261.5,317C 236.352,298.924 210.685,281.591 184.5,265C 177.845,261.024 173.512,255.357 171.5,248C 172.413,244.008 174.246,240.508 177,237.5C 205.023,211.142 232.69,184.475 260,157.5C 262.507,154.624 263.007,151.457 261.5,148C 259.5,147.333 257.5,147.333 255.5,148C 217.624,171.881 180.291,196.548 143.5,222C 128.052,231.368 111.719,233.035 94.5,227C 81.4748,222.825 68.4748,218.492 55.5,214C 47.4921,209.951 46.4921,204.618 52.5,198C 130.623,162.281 209.623,128.281 289.5,96C 297.385,93.7599 305.051,91.2599 312.5,88.5 Z"/></g>
</svg>
