<?xml version="1.0" encoding="UTF-8"?>
<!DOCTYPE svg PUBLIC "-//W3C//DTD SVG 1.1//EN" "http://www.w3.org/Graphics/SVG/1.1/DTD/svg11.dtd">
<svg xmlns="http://www.w3.org/2000/svg" version="1.1" width="420px" height="413px" style="shape-rendering:geometricPrecision; text-rendering:geometricPrecision; image-rendering:optimizeQuality; fill-rule:evenodd; clip-rule:evenodd" xmlns:xlink="http://www.w3.org/1999/xlink">
<g><path style="opacity:0.998" fill="#010101" d="M 276.5,16.5 C 277.514,17.6737 278.847,18.3404 280.5,18.5C 313.115,30.4647 340.448,49.7981 362.5,76.5C 362.427,78.0269 363.094,79.0269 364.5,79.5C 365.5,79.8333 366.167,80.5 366.5,81.5C 366.427,83.0269 367.094,84.0269 368.5,84.5C 369.167,84.5 369.5,84.8333 369.5,85.5C 369.427,87.0269 370.094,88.0269 371.5,88.5C 382.4,102.29 390.733,117.623 396.5,134.5C 396.66,136.153 397.326,137.486 398.5,138.5C 422.12,217.162 406.453,286.662 351.5,347C 293.124,400.842 225.458,417.176 148.5,396C 69.8165,367.301 23.9831,311.468 11,228.5C 6.2437,183.198 15.2437,140.865 38,101.5C 41.0299,96.9845 44.1966,92.6512 47.5,88.5C 48.9063,88.0269 49.573,87.0269 49.5,85.5C 49.5,84.8333 49.8333,84.5 50.5,84.5C 51.9063,84.0269 52.573,83.0269 52.5,81.5C 52.8333,80.5 53.5,79.8333 54.5,79.5C 55.9063,79.0269 56.573,78.0269 56.5,76.5C 60.4608,70.8714 65.1275,65.8714 70.5,61.5C 72.7488,60.9202 74.4154,59.5869 75.5,57.5C 93.6196,40.087 114.62,27.087 138.5,18.5C 140.153,18.3404 141.486,17.6737 142.5,16.5C 174.506,6.16612 207.173,3.33279 240.5,8C 252.667,10.2086 264.667,13.0419 276.5,16.5 Z"/></g>
<g><path style="opacity:0.025" fill="#fefefe" d="M 142.5,16.5 C 141.486,17.6737 140.153,18.3404 138.5,18.5C 127.007,17.6693 115.341,17.1693 103.5,17C 116.496,16.5001 129.496,16.3334 142.5,16.5 Z"/></g>
<g><path style="opacity:0.025" fill="#fefefe" d="M 276.5,16.5 C 289.837,16.3334 303.171,16.5001 316.5,17C 304.326,17.1693 292.326,17.6693 280.5,18.5C 278.847,18.3404 277.514,17.6737 276.5,16.5 Z"/></g>
<g><path style="opacity:0.004" fill="#fefffe" d="M 96.5,17.5 C 97.8333,18.1667 97.8333,18.1667 96.5,17.5 Z"/></g>
<g><path style="opacity:0.004" fill="#fefffe" d="M 322.5,17.5 C 323.833,18.1667 323.833,18.1667 322.5,17.5 Z"/></g>
<g><path style="opacity:0.008" fill="#fefffe" d="M 90.5,18.5 C 91.8333,19.1667 91.8333,19.1667 90.5,18.5 Z"/></g>
<g><path style="opacity:1" fill="#fdfdfd" d="M 392.5,188.5 C 374.272,162.099 355.439,136.099 336,110.5C 318.588,89.9203 296.755,76.587 270.5,70.5C 256.238,68.1104 241.904,67.9437 227.5,70C 161.964,78.3459 99.9636,97.8459 41.5,128.5C 41.1667,128.167 40.8333,127.833 40.5,127.5C 68.6048,69.7545 114.272,34.5879 177.5,22C 243.284,12.7053 299.45,31.5386 346,78.5C 375.457,110.759 391.791,148.759 395,192.5C 393.905,191.307 393.072,189.973 392.5,188.5 Z"/></g>
<g><path style="opacity:0.004" fill="#fefffe" d="M 353.5,26.5 C 354.833,27.1667 354.833,27.1667 353.5,26.5 Z"/></g>
<g><path style="opacity:0.835" fill="#5e5e5e" d="M 75.5,57.5 C 74.4154,59.5869 72.7488,60.9202 70.5,61.5C 71.5846,59.4131 73.2512,58.0798 75.5,57.5 Z"/></g>
<g><path style="opacity:0.004" fill="#fefffe" d="M 27.5,68.5 C 28.8333,69.1667 28.8333,69.1667 27.5,68.5 Z"/></g>
<g><path style="opacity:0.004" fill="#fefffe" d="M 24.5,77.5 C 25.8333,78.1667 25.8333,78.1667 24.5,77.5 Z"/></g>
<g><path style="opacity:0.804" fill="#7c7c7c" d="M 56.5,76.5 C 56.573,78.0269 55.9063,79.0269 54.5,79.5C 54.427,77.9731 55.0937,76.9731 56.5,76.5 Z"/></g>
<g><path style="opacity:0.804" fill="#7c7c7c" d="M 362.5,76.5 C 363.906,76.9731 364.573,77.9731 364.5,79.5C 363.094,79.0269 362.427,78.0269 362.5,76.5 Z"/></g>
<g><path style="opacity:0.004" fill="#fefffe" d="M 394.5,79.5 C 395.833,80.1667 395.833,80.1667 394.5,79.5 Z"/></g>
<g><path style="opacity:0.686" fill="#858585" d="M 52.5,81.5 C 52.573,83.0269 51.9063,84.0269 50.5,84.5C 50.427,82.9731 51.0937,81.9731 52.5,81.5 Z"/></g>
<g><path style="opacity:0.686" fill="#858585" d="M 366.5,81.5 C 367.906,81.9731 368.573,82.9731 368.5,84.5C 367.094,84.0269 366.427,83.0269 366.5,81.5 Z"/></g>
<g><path style="opacity:0.004" fill="#fefffe" d="M 22.5,86.5 C 23.8333,87.1667 23.8333,87.1667 22.5,86.5 Z"/></g>
<g><path style="opacity:0.678" fill="#838383" d="M 49.5,85.5 C 49.573,87.0269 48.9063,88.0269 47.5,88.5C 47.427,86.9731 48.0937,85.9731 49.5,85.5 Z"/></g>
<g><path style="opacity:0.686" fill="#828282" d="M 369.5,85.5 C 370.906,85.9731 371.573,86.9731 371.5,88.5C 370.094,88.0269 369.427,87.0269 369.5,85.5 Z"/></g>
<g><path style="opacity:0.004" fill="#fefffe" d="M 396.5,90.5 C 397.573,91.2506 397.74,92.2506 397,93.5C 396.517,92.552 396.351,91.552 396.5,90.5 Z"/></g>
<g><path style="opacity:0.007" fill="#fefffe" d="M 21.5,92.5 C 22.5735,93.2506 22.7401,94.2506 22,95.5C 21.5172,94.552 21.3505,93.552 21.5,92.5 Z"/></g>
<g><path style="opacity:0.014" fill="#fefffe" d="M 21.5,96.5 C 22.6291,98.6282 22.7958,100.961 22,103.5C 21.5034,101.19 21.3367,98.8568 21.5,96.5 Z"/></g>
<g><path style="opacity:0.026" fill="#fefefe" d="M 398.5,138.5 C 397.326,137.486 396.66,136.153 396.5,134.5C 397.331,123.007 397.831,111.341 398,99.5C 398.5,112.496 398.667,125.496 398.5,138.5 Z"/></g>
<g><path style="opacity:1" fill="#fefefe" d="M 303.5,175.5 C 300.5,177.833 297.833,180.5 295.5,183.5C 273.068,195.253 255.901,189.919 244,167.5C 239.651,147.032 246.818,132.532 265.5,124C 285.888,119.777 300.054,127.277 308,146.5C 310.508,156.797 309.008,166.464 303.5,175.5 Z"/></g>
<g><path style="opacity:1" fill="#222222" d="M 260.5,73.5 C 261.793,72.8418 263.293,72.5085 265,72.5C 283.816,75.075 300.65,82.2417 315.5,94C 324.712,101.711 333.045,110.211 340.5,119.5C 351.992,135.82 363.658,151.987 375.5,168C 375.15,169.257 374.483,169.591 373.5,169C 372.782,167.013 371.782,165.179 370.5,163.5C 368.373,160.864 366.039,158.53 363.5,156.5C 362.5,156.5 361.5,156.5 360.5,156.5C 360.762,155.022 360.429,153.689 359.5,152.5C 356.79,148.395 353.623,144.728 350,141.5C 348.587,139.348 347.754,137.014 347.5,134.5C 346.325,134.719 345.325,134.386 344.5,133.5C 342.811,130.3 340.811,127.3 338.5,124.5C 333.449,121.616 330.616,117.282 330,111.5C 323.537,106.032 317.037,100.699 310.5,95.5C 309.643,94.2643 308.977,92.931 308.5,91.5C 303.741,88.7607 298.908,86.094 294,83.5C 293.228,83.6448 292.561,83.9781 292,84.5C 289.976,82.6419 287.809,80.9752 285.5,79.5C 277.251,77.3549 268.918,75.3549 260.5,73.5 Z"/></g>
<g><path style="opacity:1" fill="#151515" d="M 270.5,70.5 C 296.755,76.587 318.588,89.9203 336,110.5C 355.439,136.099 374.272,162.099 392.5,188.5C 391.402,189.601 391.235,190.934 392,192.5C 395.001,194.846 396.001,197.846 395,201.5C 394.25,200.874 393.416,200.374 392.5,200C 388.514,194.433 384.348,188.933 380,183.5C 379.023,181.26 378.523,178.927 378.5,176.5C 377.178,176.67 376.011,176.337 375,175.5C 372.307,171.295 369.307,167.295 366,163.5C 365.621,160.97 364.787,158.637 363.5,156.5C 366.039,158.53 368.373,160.864 370.5,163.5C 371.782,165.179 372.782,167.013 373.5,169C 374.483,169.591 375.15,169.257 375.5,168C 363.658,151.987 351.992,135.82 340.5,119.5C 333.045,110.211 324.712,101.711 315.5,94C 300.65,82.2417 283.816,75.075 265,72.5C 263.293,72.5085 261.793,72.8418 260.5,73.5C 251.494,73.6664 242.494,73.4998 233.5,73C 245.998,72.2838 258.332,71.4505 270.5,70.5 Z"/></g>
<g><path style="opacity:0.999" fill="#fdfdfd" d="M 94.5,170.5 C 103.326,169.495 109.826,172.829 114,180.5C 116.351,189.575 118.851,198.575 121.5,207.5C 125.182,207.665 128.848,207.499 132.5,207C 141.583,203.054 150.916,202.054 160.5,204C 168.473,212.59 171.64,222.756 170,234.5C 168.969,237.539 167.135,240.039 164.5,242C 156.051,243.928 147.717,246.261 139.5,249C 136.943,249.685 135.109,251.185 134,253.5C 136.146,263.426 138.312,273.426 140.5,283.5C 140.441,287.515 139.107,291.015 136.5,294C 128.488,298.836 119.822,301.169 110.5,301C 107.241,299.789 104.408,297.956 102,295.5C 99.0841,286.264 96.4175,276.931 94,267.5C 93.2155,265.714 92.0488,264.214 90.5,263C 80.4951,264.832 70.4951,266.999 60.5,269.5C 51.4082,268.58 45.9082,263.58 44,254.5C 42.6705,248.548 42.3372,242.548 43,236.5C 44.8333,233.333 47.3333,230.833 50.5,229C 59.9882,226.464 69.3216,223.631 78.5,220.5C 79.5921,218.817 80.2587,216.984 80.5,215C 77.1277,205.02 74.961,194.854 74,184.5C 75.2106,181.241 77.0439,178.408 79.5,176C 84.7138,174.432 89.7138,172.599 94.5,170.5 Z"/></g>
<g><path style="opacity:1" fill="#4a4a4a" d="M 303.5,175.5 C 301.833,179.167 299.167,181.833 295.5,183.5C 297.833,180.5 300.5,177.833 303.5,175.5 Z"/></g>
<g><path style="opacity:1" fill="#fefefe" d="M 235.5,200.5 C 259.635,198.645 273.302,209.645 276.5,233.5C 274.279,253.555 263.113,264.888 243,267.5C 219.924,264.093 208.924,250.76 210,227.5C 213.566,213.769 222.066,204.769 235.5,200.5 Z"/></g>
<g><path style="opacity:1" fill="#fdfdfd" d="M 289.5,322.5 C 294.371,322.192 299.037,323.025 303.5,325C 314.457,330.331 325.124,335.998 335.5,342C 287.229,385.071 231.229,400.071 167.5,387C 156.075,384.248 145.075,380.415 134.5,375.5C 137.258,369.908 141.258,365.408 146.5,362C 194.371,349.091 242.038,335.925 289.5,322.5 Z"/></g>
</svg>
